<?xml version="1.0" standalone="no"?>
<!DOCTYPE svg PUBLIC "-//W3C//DTD SVG 20010904//EN"
 "http://www.w3.org/TR/2001/REC-SVG-20010904/DTD/svg10.dtd">
<svg version="1.0" xmlns="http://www.w3.org/2000/svg"
 width="512.000000pt" height="512.000000pt" viewBox="0 0 512.000000 512.000000"
 preserveAspectRatio="xMidYMid meet">
<metadata>
Created by potrace 1.11, written by Peter Selinger 2001-2013
</metadata>
<g transform="translate(0.000000,512.000000) scale(0.100000,-0.100000)"
fill="#000000" stroke="none">
<path d="M2818 4465 c-2 -2 -30 -6 -63 -9 -369 -40 -729 -194 -1036 -444 l-86
-70 -114 28 c-63 15 -211 51 -329 80 -118 29 -222 54 -230 55 -8 2 -15 4 -15
5 0 2 -15 5 -55 13 -14 3 -43 10 -65 15 -22 6 -55 14 -74 17 -19 3 -38 8 -43
11 -4 3 -16 7 -25 9 -218 48 -247 49 -321 13 -136 -65 -199 -219 -146 -357 9
-24 25 -54 34 -65 10 -12 35 -42 56 -67 22 -25 57 -67 79 -94 22 -27 49 -59
60 -71 11 -12 38 -43 60 -70 22 -26 45 -52 50 -58 6 -6 33 -38 61 -71 59 -71
85 -103 139 -164 22 -26 83 -98 136 -161 54 -63 105 -124 115 -134 18 -19 18
-23 2 -130 -12 -83 -16 -164 -13 -321 1 -115 5 -223 9 -240 3 -16 11 -59 17
-95 92 -538 445 -1059 924 -1367 114 -72 331 -175 460 -217 148 -47 216 -63
415 -91 84 -13 315 -12 443 1 365 38 737 189 1022 414 162 128 317 294 422
450 76 113 136 224 124 228 -6 2 -11 12 -11 23 0 18 -11 19 -303 19 l-302 0
-43 -53 c-54 -69 -159 -169 -242 -234 -305 -236 -716 -341 -1108 -283 -643 97
-1153 607 -1258 1259 -14 85 -20 315 -10 366 2 11 7 40 10 65 3 25 15 90 25
145 30 157 19 214 -63 320 -25 32 -46 62 -46 66 0 8 57 115 80 149 15 21 19
22 68 11 136 -29 204 -6 324 108 212 202 409 317 659 385 211 57 458 69 663
31 368 -67 725 -297 940 -603 l58 -82 288 0 c287 0 288 0 303 23 14 20 11 28
-30 111 -312 622 -907 1039 -1603 1125 -67 8 -404 13 -412 6z"/>
<path d="M3875 3413 c-72 -37 -215 -111 -320 -164 -104 -54 -217 -112 -250
-128 -33 -17 -66 -34 -74 -39 -10 -8 7 -50 84 -198 54 -104 101 -193 106 -199
6 -6 31 2 70 23 34 18 64 30 68 27 3 -4 7 -268 7 -588 1 -320 2 -589 3 -597 1
-13 31 -16 219 -16 119 0 219 4 222 7 7 10 6 1926 0 1933 -4 3 -64 -25 -135
-61z"/>
<path d="M2450 3376 c-124 -28 -257 -120 -324 -222 -46 -71 -79 -179 -81 -270
-2 -97 14 -165 63 -262 l37 -74 -26 -22 c-58 -50 -125 -173 -148 -271 -75
-323 134 -652 459 -719 218 -45 459 44 590 218 38 50 87 140 95 174 32 128 38
227 20 302 -5 19 -9 37 -10 40 -12 65 -83 194 -134 247 -27 28 -27 27 8 82
178 279 30 670 -289 766 -73 22 -192 27 -260 11z m164 -396 c14 -5 35 -24 46
-42 51 -84 -4 -187 -101 -188 -109 -1 -159 135 -77 212 32 30 83 37 132 18z
m1 -736 c133 -63 83 -268 -65 -267 -141 0 -195 184 -77 262 36 23 100 25 142
5z"/>
</g>
</svg>
